<svg xmlns="http://www.w3.org/2000/svg" width="1250" height="1250">
  <switch>
    <g>
      <g fill-rule="evenodd" clip-rule="evenodd" fill="white">
        <path d="M620.945 848.959c1.215 1.37 2.5 2.675 4.02 4.289 1.609-1.796 2.974-3.283 4.313-4.804a7524621.18 7524621.18 0 0 0 232.681-263.38c70.666-79.991 141.299-160.007 212.066-239.905 3.146-3.55 3.357-5.873.73-9.85-21.627-32.698-46.337-62.807-74.207-90.367-3.932-3.879-6.492-4.659-11.327-.786-79.087 63.354-158.36 126.479-237.59 189.653-1.572 1.249-3.179 2.45-4.817 3.713-.592-.811-1.012-1.215-1.226-1.708-17.025-38.192-35.394-75.867-50.566-114.78-9.975-25.573 1.756-41.708 23.519-45.903 10.753-2.072 22.119-.984 33.212-1.272 1.53-.041 3.069.216 4.508.33-.053-13.78-5.847-23.315-18.429-27.557-9.471-3.196-19.194-5.877-28.997-7.777-10.907-2.117-22.035-3.093-33.07-4.566h-37.931c-1.781.388-3.546 1.016-5.334 1.119-22.496 1.321-39.936 11.038-50.795 31.107-8.571 15.837-17.406 31.603-24.746 48.016-16.693 37.32-32.537 75.019-48.734 112.559-1.463 3.394-3.004 6.754-4.751 10.673a9779252.88 9779252.88 0 0 1-247.9-198.87c-1.785 2.366-3.026 4.525-4.737 6.21-28.331 27.898-53.286 58.533-75.129 91.76-2.888 4.391-2.623 6.815.848 10.728 148.212 167.051 296.289 334.222 444.389 501.368z"/>
        <path d="M624.883 874.312c-35.121-39.179-69.893-77.965-105.039-117.175-69.613 102.035-138.712 203.321-207.942 304.792 1.208.992 2.008 1.734 2.895 2.358 75.716 53.676 159.635 85.869 251.908 96.158 10.681 1.195 21.381 2.181 32.074 3.261h53.559c6.442-.66 12.881-1.416 19.33-1.978 96.255-8.386 183.84-40.501 262.917-95.953 1.449-1.018 2.786-2.196 4.392-3.464-69.79-101.813-139.307-203.244-209.159-305.16-35.166 39.264-69.858 77.999-104.935 117.161zM261.472 494.996c1.206-1.089 2.807-1.736 4.329-2.652-35.983-43.428-70.913-85.592-106.125-128.091-.967 1.36-1.673 2.187-2.189 3.119-34.765 62.675-56.264 129.592-64.161 200.843-1.227 11.04-2.223 22.105-3.326 33.157v47.98c1.466-1.124 3.02-2.152 4.388-3.391 55.695-50.317 111.369-100.662 167.084-150.965zM1159.038 597.104c-4.948-80.648-26.926-156.343-65.942-227.088-.738-1.346-1.664-2.585-2.75-4.249-35.379 42.701-70.3 84.859-105.853 127.768 1.426 1.009 2.567 1.659 3.517 2.519 55.97 50.579 111.922 101.175 167.901 151.739 1.194 1.077 2.717 1.789 4.089 2.673v-46.86c-.329-2.168-.829-4.325-.962-6.502zM370.976 619.294c-1.414 1.714-2.201 2.753-3.075 3.708-73.036 79.855-146.066 159.723-219.183 239.514-2.399 2.612-2.675 4.476-1.046 7.663 23.666 46.36 53.375 88.425 89.139 126.222.959 1.016 2.1 1.865 3.372 2.981 73.729-90.576 147.191-180.817 220.882-271.346-29.954-36.151-59.688-72.047-90.089-108.742zM950.585 699.453a350224.453 350224.453 0 0 0-71.731-78.411c-30.246 36.51-60.052 72.487-89.93 108.556 73.89 90.766 147.32 180.973 221.935 272.628 1.142-1.925 1.763-3.591 2.885-4.79 35.275-37.446 64.583-79.081 88.187-124.792 2.123-4.111 1.411-6.342-1.498-9.512-50.026-54.494-99.917-109.101-149.848-163.679zM274.157 502.434c-.783.333-1.175.394-1.424.618C213 556.484 153.264 609.911 93.638 663.466c-1.349 1.214-2.159 3.879-2.011 5.774 3.356 43.942 11.628 86.944 26.022 128.62 6.591 19.093 14.316 37.794 22.053 58.057 75.514-82.74 149.669-163.992 223.984-245.416-30.123-36.364-59.869-72.265-89.529-108.067zM1153.102 661.785c-57.595-51.342-115.036-102.851-172.524-154.31-1.345-1.201-2.778-2.306-4.521-3.754-29.979 36.187-59.726 72.083-89.756 108.334 74.323 81.431 148.478 162.683 223.209 244.56 1.258-2.631 2.076-4.27 2.837-5.938 25.351-56.074 40.584-114.756 45.876-176.087.487-5.668-.985-9.12-5.121-12.805z"/>
        <path d="M625 7.534C283.984 7.534 7.534 283.984 7.534 625c0 341.021 276.45 617.466 617.466 617.466 341.021 0 617.466-276.445 617.466-617.466C1242.466 283.984 966.021 7.534 625 7.534zm-1.199 1174.984c-307.909 0-557.518-249.61-557.518-557.518 0-307.91 249.608-557.519 557.518-557.519 307.907 0 557.518 249.608 557.518 557.519-.001 307.907-249.611 557.518-557.518 557.518z"/>
      </g>
    </g>
  </switch>
</svg>
